<svg id="eP2Cv16rU5S1" xmlns="http://www.w3.org/2000/svg" xmlns:xlink="http://www.w3.org/1999/xlink" viewBox="0 0 24 24" shape-rendering="geometricPrecision" text-rendering="geometricPrecision"><defs><linearGradient id="eP2Cv16rU5S4-fill" x1="24" y1="1" x2="1" y2="12" spreadMethod="pad" gradientUnits="userSpaceOnUse" gradientTransform="translate(0 0)"><stop id="eP2Cv16rU5S4-fill-0" offset="0%" stop-color="#00f261"/><stop id="eP2Cv16rU5S4-fill-1" offset="15.2702%" stop-color="#00ebb1"/><stop id="eP2Cv16rU5S4-fill-2" offset="52.7816%" stop-color="#00b2ff"/><stop id="eP2Cv16rU5S4-fill-3" offset="100%" stop-color="#06f"/></linearGradient></defs><g clip-path="url(#eP2Cv16rU5S6)"><g><path d="M1,12C1,5.92487,5.92487,1,12,1h9c1.1046,0,2,.89543,2,2v18c0,1.1046-.8954,2-2,2h-9C5.92487,23,1,18.0751,1,12Z" fill="url(#eP2Cv16rU5S4-fill)"/><path d="M8,10.7165c0-1.87501.96176-3.62506,2.561-4.6602.2281-.14761.5325.01225.5325.27961v4.53539h3.813v-.1548c0-1.87501.9618-3.62506,2.561-4.6602.2281-.14761.5325.01225.5325.27961v7.08699c0,1.8154-.9312,3.5099-2.4797,4.5122-.2629.1701-.6138-.0141-.6138-.3223v-4.3658h-3.813v.1759c0,1.8154-.9312,3.5099-2.47974,4.5122C8.35088,18.1052,8,17.921,8,17.6128v-6.8963Z" fill="#fff"/></g><clipPath id="eP2Cv16rU5S6"><rect width="24" height="24" rx="0" ry="0" fill="#fff"/></clipPath></g></svg>
