<svg width="21" height="21" viewBox="0 0 21 21" fill="none" xmlns="http://www.w3.org/2000/svg">
<g id="Group 1120">
<path id="Vector 26 (Stroke)" fill-rule="evenodd" clip-rule="evenodd" d="M10.5672 3.38149C10.5289 3.34677 10.4711 3.34677 10.4328 3.38149L3.85539 9.33726C3.83379 9.35683 3.82143 9.38486 3.82143 9.41431V17.5415C3.82143 17.5984 3.86673 17.6445 3.92262 17.6445H7.35714V16.2647C7.35714 14.4966 8.76425 13.0632 10.5 13.0632C12.2358 13.0632 13.6429 14.4966 13.6429 16.2647V17.6445H17.0774C17.1333 17.6445 17.1786 17.5984 17.1786 17.5415V9.41431C17.1786 9.38486 17.1662 9.35683 17.1446 9.33726L10.5672 3.38149ZM9.22268 1.99471C9.95114 1.3351 11.0489 1.3351 11.7773 1.99471L18.3547 7.95048C18.7652 8.32215 19 8.85488 19 9.41431V17.5415C19 18.6231 18.1392 19.5 17.0774 19.5H12.7767C12.2491 19.5 11.8214 19.0643 11.8214 18.5269V16.2647C11.8214 15.5213 11.2298 14.9186 10.5 14.9186C9.7702 14.9186 9.17857 15.5213 9.17857 16.2647V18.5269C9.17857 19.0643 8.75089 19.5 8.22333 19.5H3.92262C2.86079 19.5 2 18.6231 2 17.5415V9.41431C2 8.85488 2.23484 8.32215 2.6453 7.95048L9.22268 1.99471Z" fill="#646768"/>
</g>
</svg>
